<?xml version="1.0" encoding="UTF-8"?>
<svg version="1.1" xmlns="http://www.w3.org/2000/svg" width="634" height="394">
<path d="M0 0 C4.19920237 -0.04953687 8.39824869 -0.08578411 12.59765625 -0.10986328 C14.02542078 -0.11990427 15.45316483 -0.13353981 16.88085938 -0.15087891 C18.93624941 -0.17521152 20.99136692 -0.18650202 23.046875 -0.1953125 C24.28276367 -0.20578613 25.51865234 -0.21625977 26.79199219 -0.22705078 C29.83323149 -0.01180325 31.49852075 0.31553008 34 2 C34.90625 3.671875 34.90625 3.671875 35.5 5.75 C35.73847656 6.55566406 35.97695312 7.36132812 36.22265625 8.19140625 C36.47917969 9.11824219 36.73570312 10.04507813 37 11 C37.30808594 12.06089844 37.61617187 13.12179688 37.93359375 14.21484375 C38.61796142 16.58217003 39.29338023 18.95209731 39.9609375 21.32421875 C40.64002336 23.7265488 41.33219815 26.12522758 42.0390625 28.51953125 C43.67074096 34.06848356 45.16723617 39.5795474 46.3125 45.25 C47.99220221 53.46187746 50.24906016 61.51204917 52.48754883 69.58691406 C54.04439194 75.24800667 55.42266737 80.8743232 56.51928711 86.64160156 C57.31894543 90.56476021 58.40494818 94.40072694 59.5 98.25 C59.71269531 99.013125 59.92539062 99.77625 60.14453125 100.5625 C61.06324755 103.83155188 62.02126271 107.0636368 63.09765625 110.28515625 C63.86450749 112.59234936 64.45454009 114.80949738 64.9375 117.1875 C66.07464899 122.51845447 67.52887476 127.75298666 69 133 C71.06868457 127.41455165 72.46664689 121.95835123 73.44287109 116.0859375 C73.99682461 113.01758849 74.66214433 109.99998965 75.375 106.96484375 C76.43035641 102.44435777 77.47515845 97.92203849 78.5 93.39453125 C79 91.20052083 79.5 89.00651042 80 86.8125 C80.2475 85.71486328 80.495 84.61722656 80.75 83.48632812 C81.88821909 78.50958373 83.07954471 73.59283404 84.58984375 68.71484375 C85.91695404 64.42788845 86.82401046 60.17219773 87.5625 55.75 C88.17266153 52.13784373 88.7901023 48.62204501 89.96484375 45.140625 C91.10616938 41.67788609 91.79089586 38.25203428 92.47753906 34.67626953 C93.34355919 30.24014213 94.35285405 25.83984379 95.375 21.4375 C95.5709375 20.55642578 95.766875 19.67535156 95.96875 18.76757812 C99.46468614 3.77709246 99.46468614 3.77709246 103.74780273 0.77490234 C108.72962515 -0.93916859 114.22589965 -0.41295557 119.4375 -0.4375 C120.66533203 -0.47037109 121.89316406 -0.50324219 123.15820312 -0.53710938 C132.10678282 -0.59069368 132.10678282 -0.59069368 136.16015625 2.08984375 C140.70394469 9.27694011 142.32844654 16.78292469 144.25 25 C144.55010986 26.26078369 144.85021973 27.52156738 145.15942383 28.82055664 C146.77738784 35.63924396 148.33974932 42.46997195 149.87109375 49.30859375 C150.02411957 49.99112213 150.17714539 50.67365051 150.33480835 51.37686157 C151.06876711 54.65530826 151.79635459 57.93486393 152.51464844 61.21679688 C153.84616828 67.22710721 155.2944637 73.15439547 157.02734375 79.0625 C159.00736698 85.83496633 160.48003137 92.64950273 161.875 99.5625 C164.36216338 111.56092476 167.42420358 123.28356067 171 135 C171.23074219 134.06542969 171.46148437 133.13085938 171.69921875 132.16796875 C173.32364556 125.61687658 174.97062816 119.07437275 176.71362305 112.55371094 C179.07579358 103.71362718 181.25353688 94.8383831 183.375 85.9375 C187.60125244 68.25169037 192.3601238 50.71988643 197.29516602 33.22021484 C198.47482078 29.00639195 199.54989666 24.77901942 200.56396484 20.52246094 C204.6122481 3.5918346 204.6122481 3.5918346 210 0 C213.00268555 -0.22705078 213.00268555 -0.22705078 216.63671875 -0.1953125 C217.93544922 -0.18886719 219.23417969 -0.18242187 220.57226562 -0.17578125 C221.94401307 -0.1590706 223.31575786 -0.14214071 224.6875 -0.125 C226.07095718 -0.11496674 227.45442127 -0.10584149 228.83789062 -0.09765625 C232.22543452 -0.07404967 235.61263072 -0.04112037 239 0 C245.00446996 12.00893992 233.07638986 34.76356192 229.17333984 46.48193359 C228.16330205 49.48947631 227.15045292 52.49606337 226.13623047 55.50219727 C224.17234247 61.37074893 222.40476445 67.28655584 220.68530273 73.23071289 C219.46314237 77.45177103 218.16266424 81.62746872 216.7421875 85.78515625 C214.34358392 92.9430943 212.21669088 100.18807215 210.18359375 107.45703125 C207.78857561 115.864861 205.078371 124.1626978 202.35449219 132.46826172 C199.70251494 140.56705416 197.17736199 148.68021844 194.88842773 156.89038086 C190.56427203 172.02551998 190.56427203 172.02551998 185 176 C179.72112126 177.25068819 174.39597305 177.21825898 169 177.25 C167.68515625 177.2809375 167.68515625 177.2809375 166.34375 177.3125 C160.39721051 177.34832253 156.14192539 176.64508552 151.43139648 172.67944336 C149.70015295 170.64819242 149.20866947 169.03362589 148.53515625 166.45703125 C148.29450439 165.55597656 148.05385254 164.65492188 147.8059082 163.7265625 C147.43792114 162.28410156 147.43792114 162.28410156 147.0625 160.8125 C146.80235107 159.82378906 146.54220215 158.83507812 146.27416992 157.81640625 C145.5052016 154.88030215 144.75092052 151.94076437 144 149 C143.60949548 147.49345835 143.21888324 145.98694461 142.828125 144.48046875 C140.97165073 137.24820767 139.30330476 129.98760341 137.80859375 122.671875 C136.65185732 117.41906222 135.31962327 112.21396384 134 107 C132.69501355 101.8283257 131.39321717 96.65585118 130.09326172 91.48291016 C129.69860114 89.91433737 129.30309686 88.34597662 128.90673828 86.77783203 C126.65877945 77.88082375 124.50104915 68.99124336 122.6628418 59.99902344 C121.6880174 55.58843674 120.39503424 51.29393518 119 47 C118.85900879 47.57967529 118.71801758 48.15935059 118.57275391 48.7565918 C117.92727204 51.4011643 117.2761899 54.0443275 116.625 56.6875 C116.40328125 57.59951172 116.1815625 58.51152344 115.953125 59.45117188 C114.88052526 63.78889143 113.70103503 67.86273684 112 72 C111.49986218 74.05276347 111.04553913 76.11696323 110.625 78.1875 C110.37105469 79.40824219 110.11710937 80.62898438 109.85546875 81.88671875 C109.65123291 82.87357666 109.65123291 82.87357666 109.44287109 83.88037109 C108.63247612 87.75900902 107.78730917 91.62983731 106.9375 95.5 C106.77523926 96.2530542 106.61297852 97.0061084 106.44580078 97.78198242 C105.75312379 100.93137724 105.01579229 103.95334921 103.98046875 107.01171875 C102.76295137 110.72247889 102.08222451 114.48090415 101.375 118.3125 C99.65170365 127.2374518 97.64298597 136.0862316 95.52618408 144.9246521 C95.17903254 146.3763383 94.83453218 147.8286614 94.49285889 149.28164673 C89.10726644 172.13140051 89.10726644 172.13140051 83 176 C73.35399965 178.79523963 60.10059798 178.18292068 51.125 173.5 C44.17831624 165.32743087 41.45968677 151.31157353 39.0390625 140.9453125 C38.27255731 137.78857655 37.13972863 134.9721485 35.80322266 132.00585938 C34.0231438 127.56053176 32.93110197 122.86733752 31.6875 118.25 C28.7117563 107.40979081 25.45695765 96.6946514 22 86 C18.44693807 74.94859307 15.24053035 63.82375937 12.09350586 52.65014648 C9.98415432 45.23432532 7.69591369 37.91478212 5.1875 30.625 C-1.65976636 10.58101054 -1.65976636 10.58101054 0 0 Z " fill="#FDFDFD" transform="translate(206,24)"/>
<path d="M0 0 C6.1516323 2.46065292 11.78166218 6.01224045 17.421875 9.453125 C23.4202393 13.05214358 29.47600395 16.38064454 35.92700195 19.09155273 C38.42539197 20.18641897 40.87413006 21.36753614 43.328125 22.55859375 C44.29363281 23.02716797 45.25914063 23.49574219 46.25390625 23.97851562 C48.23713674 24.94427389 50.21893318 25.9129831 52.19921875 26.88476562 C57.91331431 29.65075212 63.62455376 32.03475404 69.61474609 34.13500977 C72.41499056 35.15049248 75.03330875 36.40108367 77.6875 37.75 C87.74898717 42.48271375 98.43001886 45.61093686 109 49 C110.98312682 49.64176054 112.96620117 50.28368326 114.94921875 50.92578125 C132.06640944 56.61191168 132.06640944 56.61191168 149.55859375 60.8984375 C154.65849439 61.89429583 159.67730341 63.14169037 164.71508789 64.41113281 C188.73166264 70.42872317 212.91931334 74.46973541 237.58740234 76.69140625 C239.7787757 76.88956735 241.96933329 77.09709816 244.15869141 77.31640625 C282.38425585 81.10836304 321.87380532 80.65191625 360 76 C361.01449219 75.8772168 362.02898437 75.75443359 363.07421875 75.62792969 C368.19738831 74.98665019 373.29718513 74.24451765 378.39355469 73.41796875 C381.33506634 72.94626887 384.28037466 72.50402434 387.2265625 72.0625 C402.11851441 69.7994416 416.58108844 66.85388434 431.08203125 62.7734375 C434.0410826 61.98911064 437.01539989 61.29899033 440.00073242 60.62255859 C448.25392372 58.74469727 456.32907847 56.51267239 464.37060547 53.86474609 C466.34729549 53.21465918 468.32579827 52.57008019 470.30517578 51.92822266 C487.04072339 46.49824935 503.59055665 40.8177528 519.74609375 33.80859375 C523.52606382 32.4525213 527.05190719 32.32889562 531 33 C534.168427 35.00451504 535.49886291 36.43922967 536.6484375 40.01953125 C536.99969667 42.72992294 536.88121605 44.39851531 536 47 C531.56891441 52.31560172 525.87616808 56.40234608 520 60 C518.10285693 61.20627594 516.20714667 62.41480684 514.3125 63.625 C513.38050781 64.21539062 512.44851563 64.80578125 511.48828125 65.4140625 C509.64545453 66.5886114 507.818287 67.78780867 506 69 C505.01 69 504.02 69 503 69 C503 69.66 503 70.32 503 71 C501.88625 71.53625 500.7725 72.0725 499.625 72.625 C496.34015983 74.25585375 493.23649076 76.06024152 490.125 78 C486.08685292 80.45853704 482.08941173 82.28530646 477.671875 83.9453125 C474.6875072 85.12335242 471.82974242 86.48643585 468.9375 87.875 C461.77088354 91.22562588 454.40450318 93.78571817 446.92724609 96.3359375 C444.33384314 97.22953467 441.76052113 98.17450446 439.1875 99.125 C424.68118635 104.40990887 409.89976911 108.72998732 395 112.75 C394.23550537 112.96068115 393.47101074 113.1713623 392.68334961 113.38842773 C388.22899811 114.57041187 383.93481051 115.32805268 379.3359375 115.66503906 C376.82346852 115.96989736 376.82346852 115.96989736 373.7734375 116.93603516 C346.97802426 124.49131537 317.71659865 124.58438918 290.0625 124.5 C289.39774658 124.49906593 288.73299316 124.49813187 288.0480957 124.49716949 C265.17256445 124.4630659 242.59868396 123.12063641 219.9375 120 C218.67357422 119.835 217.40964844 119.67 216.10742188 119.5 C210.22607445 118.70631263 204.65542473 117.79189259 199 116 C197.44249975 115.70175527 195.87970425 115.42963173 194.3125 115.1875 C180.68880006 112.79212419 167.28490172 109.02403237 154.15478516 104.70654297 C151.78755745 103.93034118 149.41529413 103.17062767 147.04296875 102.41015625 C129.76880942 96.82051117 113.11480961 90.38777676 97 82 C94.9851605 80.98350894 92.96629745 79.97541489 90.94628906 78.96923828 C88.89699938 77.9484582 86.85084283 76.92157625 84.8046875 75.89453125 C82.50653978 74.74431346 80.20232158 73.61915354 77.8828125 72.51171875 C66.6892144 67.12726438 56.27590168 60.31391727 46.00390625 53.35546875 C44.60338396 52.40813691 43.19369847 51.4742744 41.77734375 50.55078125 C37.02641299 47.44597058 32.52893552 44.13648297 28.0859375 40.60546875 C26.24975022 39.19222349 24.39489684 37.9235088 22.4375 36.6875 C21.633125 36.130625 20.82875 35.57375 20 35 C20 34.34 20 33.68 20 33 C19.2575 32.731875 18.515 32.46375 17.75 32.1875 C15.10938051 31.04723249 13.14447156 29.90619694 11 28 C11 27.34 11 26.68 11 26 C10.14728516 25.60748047 10.14728516 25.60748047 9.27734375 25.20703125 C2.97009819 21.86408292 -5.67588506 15.97234483 -8 9 C-8.12781786 6.32605036 -8.04391871 3.67904143 -8 1 C-5.03497454 -0.48251273 -3.33856155 -0.35770302 0 0 Z " fill="#FDFDFD" transform="translate(27,251)"/>
<path d="M0 0 C8.71030401 7.6566382 15.15298908 18.9480329 17.03515625 30.4140625 C17.20466797 31.42210937 17.37417969 32.43015625 17.54882812 33.46875 C17.71833984 34.5103125 17.88785156 35.551875 18.0625 36.625 C18.40550155 38.70086069 18.75046533 40.77639838 19.09765625 42.8515625 C19.24726807 43.76760254 19.39687988 44.68364258 19.55102539 45.62744141 C19.97073307 48.13606328 19.97073307 48.13606328 21 51 C21.16672588 53.82109024 21.28203462 56.6216199 21.3515625 59.4453125 C21.38629166 60.71023026 21.38629166 60.71023026 21.42172241 62.0007019 C21.46939143 63.79451458 21.51462189 65.58839344 21.55761719 67.38232422 C21.62356011 70.06639248 21.70186528 72.74989404 21.78125 75.43359375 C22.04020378 85.13108436 21.93686272 94.67555914 21.18920898 104.34985352 C20.95075817 108.94995431 21.2913008 113.37903466 21.7578125 117.953125 C22.00229981 121.02893306 21.93222883 123.981478 21.8125 127.0625 C21.73574515 134.29664508 23.62135353 141.40648397 27.63671875 147.47265625 C29.3345316 150.6201775 29.51155223 152.47075894 29 156 C24.26827941 162.35569383 16.26462487 167.08750558 9 170 C5.375 170.5 5.375 170.5 2 169 C-4.07598111 163.5991279 -8.49324137 157.29546771 -12 150 C-15.89902056 151.33153942 -18.34494767 152.97515106 -21.3125 155.8125 C-32.96926489 166.43396012 -46.90008572 170.62608706 -62 174 C-62.83660156 174.20109375 -63.67320313 174.4021875 -64.53515625 174.609375 C-71.22572745 175.66968739 -77.15645197 174.5575708 -83.625 172.9375 C-84.50293213 172.71779541 -85.38086426 172.49809082 -86.28540039 172.27172852 C-101.20727491 168.29885293 -112.05724461 160.75132837 -120.1875 147.625 C-124.00288528 140.63012699 -125.53535378 132.88490554 -126 125 C-126.05285156 124.34 -126.10570312 123.68 -126.16015625 123 C-126.38409048 117.85924887 -125.59642665 112.92208698 -124.6875 107.875 C-124.56987305 107.205896 -124.45224609 106.53679199 -124.33105469 105.84741211 C-121.60220706 91.69544083 -113.19090473 81.26458885 -101.47265625 73.27734375 C-85.60784925 63.94931437 -68.9166018 62.5824719 -50.875 63.1875 C-49.61196045 63.22939453 -48.3489209 63.27128906 -47.04760742 63.31445312 C-36.90924217 63.75449196 -25.27372447 64.36313776 -16 69 C-14.90281651 45.14569547 -14.90281651 45.14569547 -25.609375 24.6015625 C-27 23 -27 23 -27 21 C-28.2065625 20.8453125 -28.2065625 20.8453125 -29.4375 20.6875 C-32.23590486 20.14745696 -34.30156545 19.5138886 -36.90234375 18.4921875 C-42.92194095 16.46814147 -48.82047606 16.42490832 -55.125 16.4375 C-56.34896484 16.43919189 -57.57292969 16.44088379 -58.83398438 16.44262695 C-74.41685171 16.74455006 -88.52582501 20.77799083 -102.609375 27.22265625 C-106.6627692 28.54067168 -109.15517322 27.66850973 -113 26 C-114.6196057 22.7607886 -114.22623755 19.24295619 -114.25 15.6875 C-114.270625 14.92759766 -114.29125 14.16769531 -114.3125 13.38476562 C-114.34470319 8.7515318 -114.00924883 5.75116041 -111 2 C-85.30061199 -20.78763469 -26.63843287 -19.69392163 0 0 Z M-82.1640625 97.98046875 C-89.39920991 105.9391309 -89.48520573 114.72359152 -89 125 C-88.30515551 130.43561891 -86.67269195 134.87941879 -83 139 C-73.44750401 146.08145102 -63.82306209 146.78682581 -52.3125 145.3125 C-40.35462372 143.13964884 -29.20317139 138.08443995 -22 128 C-15.09036848 117.78051002 -14.81550382 105.98367055 -15 94 C-22.08112169 90.72007916 -28.4251721 89.26427431 -36.1875 88.75 C-37.13302734 88.67265625 -38.07855469 88.5953125 -39.05273438 88.515625 C-54.22880593 87.33115112 -70.27903271 87.10373571 -82.1640625 97.98046875 Z " fill="#FDFDFD" transform="translate(169,32)"/>
<path d="M0 0 C1.25619141 -0.01224609 2.51238281 -0.02449219 3.80664062 -0.03710938 C20.17506925 -0.06246058 42.25404908 1.46371057 54.55859375 13.671875 C58.310819 18.91720027 57.92415062 26.0550316 57.0625 32.1875 C55.91015625 35.0234375 55.91015625 35.0234375 54.0625 37.1875 C48.7343924 39.16986944 44.58729628 37.33104987 39.5625 35.375 C38.09386322 34.82651966 36.6251152 34.27833708 35.15625 33.73046875 C34.1053418 33.33359863 34.1053418 33.33359863 33.03320312 32.92871094 C19.43753595 27.81517705 -1.49844511 26.0512707 -15.25 31.5 C-16.136875 32.056875 -17.02375 32.61375 -17.9375 33.1875 C-19.5771875 34.2084375 -19.5771875 34.2084375 -21.25 35.25 C-23.99286447 36.91155645 -23.99286447 36.91155645 -24.9375 39.1875 C-25.5975 39.1875 -26.2575 39.1875 -26.9375 39.1875 C-28.79414494 46.96136588 -30.04508034 53.9540252 -25.9375 61.1875 C-23.52980608 63.69236542 -20.91773391 65.42619854 -17.9375 67.1875 C-16.926875 67.868125 -15.91625 68.54875 -14.875 69.25 C-7.16997951 73.45906311 1.85311104 75.57476558 10.27001953 77.96313477 C43.530697 87.43367097 43.530697 87.43367097 53.0625 98.1875 C54.0215625 99.14269531 54.0215625 99.14269531 55 100.1171875 C63.96628477 109.38015081 66.36407568 120.0533023 66.37719727 132.67626953 C66.15699237 144.24419275 63.25374787 155.61291787 55.0625 164.1875 C54.4025 164.1875 53.7425 164.1875 53.0625 164.1875 C52.8253125 164.76628906 52.588125 165.34507812 52.34375 165.94140625 C46.48161716 176.21801107 32.23197624 181.20561274 21.51953125 184.2734375 C20.37871094 184.57507813 19.23789062 184.87671875 18.0625 185.1875 C16.93199219 185.48914063 15.80148437 185.79078125 14.63671875 186.1015625 C-10.19717811 191.90970887 -40.38546024 187.52126645 -62.30078125 174.1328125 C-64.9375 172.1875 -64.9375 172.1875 -65.9375 170.1875 C-66.17586379 166.88045275 -66.12268688 163.56469696 -66.125 160.25 C-66.13724609 159.33025391 -66.14949219 158.41050781 -66.16210938 157.46289062 C-66.16404297 156.57923828 -66.16597656 155.69558594 -66.16796875 154.78515625 C-66.17207764 153.97570557 -66.17618652 153.16625488 -66.18041992 152.33227539 C-65.9375 150.1875 -65.9375 150.1875 -63.9375 147.1875 C-58.48793119 146.56546485 -54.28488226 147.93589533 -49.3125 149.9375 C-28.18865213 157.8156947 -3.50461594 161.30985243 18.0625 153.1875 C23.51318519 150.44184934 27.03222854 146.88993461 29.44140625 141.2578125 C31.10474475 135.71335082 30.44919842 130.37372848 28.2265625 125.06640625 C25.98084824 121.44161242 22.65889296 119.35312982 19.0625 117.1875 C18.43617676 116.79812256 17.80985352 116.40874512 17.16455078 116.00756836 C11.37226151 112.5665853 5.7036118 110.72652726 -0.8125 109.125 C-2.76777986 108.6178599 -4.72222307 108.10748225 -6.67578125 107.59375 C-7.59439941 107.35269531 -8.51301758 107.11164063 -9.45947266 106.86328125 C-14.07677698 105.60409915 -18.49126664 103.94094414 -22.9375 102.1875 C-23.97777344 101.82140625 -25.01804687 101.4553125 -26.08984375 101.078125 C-41.48577908 95.54493004 -53.19510906 87.0189211 -60.71484375 72.16796875 C-66.07551439 59.10026364 -66.0747623 45.33574221 -60.9375 32.1875 C-59.15544736 29.00421693 -57.1436963 26.08887794 -54.9375 23.1875 C-54.1640625 22.07181641 -54.1640625 22.07181641 -53.375 20.93359375 C-52.900625 20.35738281 -52.42625 19.78117187 -51.9375 19.1875 C-51.2775 19.1875 -50.6175 19.1875 -49.9375 19.1875 C-49.71707031 18.60097656 -49.49664062 18.01445313 -49.26953125 17.41015625 C-47.5203734 14.49147351 -45.52501738 13.37913771 -42.625 11.625 C-41.20767578 10.75681641 -41.20767578 10.75681641 -39.76171875 9.87109375 C-38.82972656 9.31550781 -37.89773438 8.75992187 -36.9375 8.1875 C-36.14085937 7.66542969 -35.34421875 7.14335937 -34.5234375 6.60546875 C-31.38740711 4.88586296 -28.32391131 3.9994235 -24.875 3.0625 C-23.66714844 2.72992187 -22.45929688 2.39734375 -21.21484375 2.0546875 C-20.13332031 1.76851562 -19.05179687 1.48234375 -17.9375 1.1875 C-17.339375 1.00807861 -16.74125 0.82865723 -16.125 0.64379883 C-10.88601712 -0.44902026 -5.32869126 0.00266036 0 0 Z " fill="#FDFDFD" transform="translate(524.9375,18.8125)"/>
<path d="M0 0 C4.52467659 5.97257309 3.20146038 16.02454318 2.29589844 23.16455078 C1.54766027 27.83176816 0.55166278 32.44148584 -0.4375 37.0625 C-0.75072392 38.89570979 -1.06333719 40.72902416 -1.375 42.5625 C-2.15627205 46.46234966 -3.5412477 49.59543236 -5.4375 53.07421875 C-6.48811285 55.16313258 -7.18674824 57.2045923 -7.875 59.4375 C-12.94405091 75.18106022 -22.995665 88.41433683 -34.4375 100.0625 C-34.96601562 100.6503125 -35.49453125 101.238125 -36.0390625 101.84375 C-38.51508321 104.0016228 -41.2711163 103.8928723 -44.4375 104.0625 C-47.4375 102.0625 -47.4375 102.0625 -48.29296875 99.3203125 C-48.46787995 95.37771954 -47.55508457 93.42529052 -45.75 89.9375 C-43.1870199 84.74051032 -41.17352573 79.64978478 -39.4921875 74.109375 C-38.61471207 71.57444597 -37.62187639 69.27045896 -36.48828125 66.84765625 C-34.26980836 61.94220673 -32.96850062 56.98054125 -31.75 51.75 C-31.53794922 50.87021484 -31.32589844 49.99042969 -31.10742188 49.08398438 C-30.71656963 47.46015975 -30.32914224 45.83550344 -29.9465332 44.2097168 C-29.61205397 42.79880801 -29.25552435 41.39291177 -28.87524414 39.99365234 C-28.18932677 36.96765883 -28.41309998 34.08868296 -28.5625 31 C-28.60632813 29.77152344 -28.65015625 28.54304688 -28.6953125 27.27734375 C-29.12327603 23.99475757 -29.12327603 23.99475757 -31.4296875 22.31640625 C-32.42226563 21.90261719 -33.41484375 21.48882812 -34.4375 21.0625 C-35.01943115 20.78889648 -35.6013623 20.51529297 -36.20092773 20.23339844 C-43.06128453 17.40869071 -50.16036837 17.64192895 -57.4465332 17.72631836 C-59.60341448 17.74976535 -61.75904012 17.74688031 -63.91601562 17.74023438 C-72.90902069 17.75870566 -81.55615337 18.5361213 -90.4375 20.0625 C-91.16735107 20.18375244 -91.89720215 20.30500488 -92.64916992 20.42993164 C-95.26867108 20.87015088 -97.88455913 21.32926176 -100.5 21.79296875 C-103.71988444 22.08841027 -106.30138912 21.83316361 -109.4375 21.0625 C-110.0975 20.4025 -110.7575 19.7425 -111.4375 19.0625 C-111.0625 15.4375 -111.0625 15.4375 -110.4375 12.0625 C-109.4475 11.7325 -108.4575 11.4025 -107.4375 11.0625 C-107.1389209 10.43214844 -106.8403418 9.80179687 -106.53271484 9.15234375 C-104.36238899 5.01101756 -99.18674317 3.82173918 -95.0625 2.0625 C-94.03769531 1.62043213 -93.01289062 1.17836426 -91.95703125 0.72290039 C-82.31966786 -3.27063405 -72.72310757 -5.44055687 -62.4375 -6.9375 C-61.37273438 -7.12699219 -60.30796875 -7.31648437 -59.2109375 -7.51171875 C-42.19927043 -9.43125468 -14.40426407 -11.44954323 0 0 Z " fill="#FDFDFC" transform="translate(613.4375,247.9375)"/>
<path d="M0 0 C3 3 3 3 3.29296875 6.13671875 C3.25816406 7.30847656 3.22335938 8.48023437 3.1875 9.6875 C3.16042969 10.86699219 3.13335937 12.04648438 3.10546875 13.26171875 C3.07066406 14.16535156 3.03585938 15.06898437 3 16 C2.01 16 1.02 16 0 16 C0 10.72 0 5.44 0 0 Z " fill="#E6E6E6" transform="translate(187,95)"/>
<path d="M0 0 C2.48950462 0.46101937 4.14191076 1.0882148 6.3125 2.4375 C9.44484038 4.25862813 12.50144014 5.10821023 16 6 C16 6.99 16 7.98 16 9 C10.04675579 7.60668753 5.24258516 5.11464243 0 2 C0 1.34 0 0.68 0 0 Z " fill="#F1EFED" transform="translate(110,324)"/>
<path d="M0 0 C0.99 0.33 1.98 0.66 3 1 C-0.5087188 4.09592835 -3.49197399 5.74194623 -8 7 C-5.42215154 4.35247996 -3.08351902 2.05567935 0 0 Z " fill="#F3F2EF" transform="translate(540,312)"/>
<path d="M0 0 C1 2 1 2 0.4765625 4.09375 C0.05503906 5.28484375 0.05503906 5.28484375 -0.375 6.5 C-0.65085937 7.2940625 -0.92671875 8.088125 -1.2109375 8.90625 C-2 11 -2 11 -3 13 C-3.66 12.67 -4.32 12.34 -5 12 C-4.35758106 10.186287 -3.71096881 8.37405876 -3.0625 6.5625 C-2.70285156 5.55316406 -2.34320312 4.54382813 -1.97265625 3.50390625 C-1 1 -1 1 0 0 Z " fill="#EFEFEC" transform="translate(606,301)"/>
<path d="M0 0 C0 0.99 0 1.98 0 3 C-1.65 3 -3.3 3 -5 3 C-5 3.66 -5 4.32 -5 5 C-6.65 5 -8.3 5 -10 5 C-3.63636364 0 -3.63636364 0 0 0 Z " fill="#F0EFED" transform="translate(523,249)"/>
<path d="M0 0 C0.66 0 1.32 0 2 0 C0.50902342 3.7952131 -1.75700849 5.61042731 -5 8 C-5 7.01 -5 6.02 -5 5 C-4.34 5 -3.68 5 -3 5 C-2.67 4.01 -2.34 3.02 -2 2 C-1.34 2 -0.68 2 0 2 C0 1.34 0 0.68 0 0 Z " fill="#EAE9E3" transform="translate(584,339)"/>
<path d="M0 0 C0.33 0 0.66 0 1 0 C0.67 3.3 0.34 6.6 0 10 C-2 7 -2 7 -1.6875 3.875 C-1 1 -1 1 0 0 Z " fill="#F4F3F1" transform="translate(615,264)"/>
<path d="" fill="#FFFFFF" transform="translate(0,0)"/>
<path d="" fill="#FFFFFF" transform="translate(0,0)"/>
<path d="" fill="#FFFFFF" transform="translate(0,0)"/>
<path d="" fill="#FFFFFF" transform="translate(0,0)"/>
<path d="" fill="#FFFFFF" transform="translate(0,0)"/>
<path d="" fill="#FFFFFF" transform="translate(0,0)"/>
<path d="" fill="#FFFFFF" transform="translate(0,0)"/>
<path d="" fill="#FFFFFF" transform="translate(0,0)"/>
<path d="" fill="#FFFFFF" transform="translate(0,0)"/>
<path d="" fill="#FFFFFF" transform="translate(0,0)"/>
<path d="" fill="#FFFFFF" transform="translate(0,0)"/>
<path d="" fill="#FFFFFF" transform="translate(0,0)"/>
<path d="" fill="#FFFFFF" transform="translate(0,0)"/>
<path d="" fill="#FFFFFF" transform="translate(0,0)"/>
<path d="" fill="#FFFFFF" transform="translate(0,0)"/>
<path d="" fill="#FFFFFF" transform="translate(0,0)"/>
<path d="" fill="#FFFFFF" transform="translate(0,0)"/>
<path d="" fill="#FFFFFF" transform="translate(0,0)"/>
<path d="" fill="#FFFFFF" transform="translate(0,0)"/>
<path d="" fill="#FFFFFF" transform="translate(0,0)"/>
<path d="" fill="#FFFFFF" transform="translate(0,0)"/>
<path d="" fill="#FFFFFF" transform="translate(0,0)"/>
<path d="" fill="#FFFFFF" transform="translate(0,0)"/>
<path d="" fill="#FFFFFF" transform="translate(0,0)"/>
<path d="" fill="#FFFFFF" transform="translate(0,0)"/>
<path d="" fill="#FFFFFF" transform="translate(0,0)"/>
<path d="" fill="#FFFFFF" transform="translate(0,0)"/>
<path d="" fill="#FFFFFF" transform="translate(0,0)"/>
<path d="" fill="#FFFFFF" transform="translate(0,0)"/>
<path d="" fill="#FFFFFF" transform="translate(0,0)"/>
<path d="" fill="#FFFFFF" transform="translate(0,0)"/>
<path d="" fill="#FFFFFF" transform="translate(0,0)"/>
<path d="" fill="#FFFFFF" transform="translate(0,0)"/>
<path d="" fill="#FFFFFF" transform="translate(0,0)"/>
<path d="" fill="#FFFFFF" transform="translate(0,0)"/>
<path d="" fill="#FFFFFF" transform="translate(0,0)"/>
<path d="" fill="#FFFFFF" transform="translate(0,0)"/>
<path d="" fill="#FFFFFF" transform="translate(0,0)"/>
<path d="" fill="#FFFFFF" transform="translate(0,0)"/>
<path d="" fill="#FFFFFF" transform="translate(0,0)"/>
<path d="" fill="#FFFFFF" transform="translate(0,0)"/>
<path d="" fill="#FFFFFF" transform="translate(0,0)"/>
<path d="" fill="#FFFFFF" transform="translate(0,0)"/>
<path d="" fill="#FFFFFF" transform="translate(0,0)"/>
<path d="" fill="#FFFFFF" transform="translate(0,0)"/>
<path d="" fill="#FFFFFF" transform="translate(0,0)"/>
<path d="" fill="#FFFFFF" transform="translate(0,0)"/>
<path d="" fill="#FFFFFF" transform="translate(0,0)"/>
<path d="" fill="#FFFFFF" transform="translate(0,0)"/>
<path d="" fill="#FFFFFF" transform="translate(0,0)"/>
<path d="" fill="#FFFFFF" transform="translate(0,0)"/>
<path d="" fill="#FFFFFF" transform="translate(0,0)"/>
<path d="" fill="#FFFFFF" transform="translate(0,0)"/>
<path d="" fill="#FFFFFF" transform="translate(0,0)"/>
<path d="" fill="#FFFFFF" transform="translate(0,0)"/>
<path d="" fill="#FFFFFF" transform="translate(0,0)"/>
<path d="" fill="#FFFFFF" transform="translate(0,0)"/>
<path d="" fill="#FFFFFF" transform="translate(0,0)"/>
<path d="" fill="#FFFFFF" transform="translate(0,0)"/>
<path d="" fill="#FFFFFF" transform="translate(0,0)"/>
<path d="" fill="#FFFFFF" transform="translate(0,0)"/>
<path d="" fill="#FFFFFF" transform="translate(0,0)"/>
</svg>
