<?xml version="1.0" encoding="UTF-8"?>
<svg version="1.1" xmlns="http://www.w3.org/2000/svg" width="512" height="512">
<path d="M0 0 C0.76940918 0.1556543 1.53881836 0.31130859 2.33154297 0.47167969 C25.54205005 5.36478469 58.25601292 17.76726716 73.22319031 37.62268066 C75.97281471 39.75409117 78.8851591 39.41447864 82.22192383 39.38476562 C82.95399551 39.3901384 83.6860672 39.39551117 84.44032288 39.40104675 C86.02975131 39.41082865 87.61923318 39.41376764 89.20868874 39.41069031 C91.72700601 39.4062145 94.24461965 39.4202065 96.76286316 39.43908691 C102.11273053 39.47589615 107.46252465 39.4895768 112.8125 39.5 C119.00240484 39.51208559 125.19196799 39.53369789 131.38171959 39.58000183 C133.85787325 39.59354944 136.33359263 39.58940455 138.80976868 39.58459473 C140.33648221 39.59393968 141.86319098 39.60410959 143.38989258 39.61523438 C144.07426392 39.60908615 144.75863525 39.60293793 145.46374512 39.59660339 C150.0186476 39.65467463 153.12828761 40.61561594 157 43 C161.66829197 49.11707224 161.10481671 55.70476098 160.94961548 63.03549194 C160.93268092 64.05511383 160.91574635 65.07473571 160.89829862 66.12525523 C160.86086655 68.36093363 160.82112005 70.59657417 160.77937508 72.83217621 C160.66403428 79.05379884 160.56792567 85.27572357 160.47061157 91.49765015 C160.45485228 92.48823768 160.45485228 92.48823768 160.43877462 93.49883708 C160.27333994 103.93260332 160.15319227 114.366223 160.06674194 124.80093384 C160.06084964 125.50865599 160.05495735 126.21637815 160.04888649 126.94554643 C159.98855634 134.26694904 159.93373571 141.58838436 159.88287447 148.90985849 C159.85647686 152.67152373 159.82859506 156.43317657 159.79980469 160.19482422 C159.79409818 160.94348124 159.78839167 161.69213826 159.78251223 162.46348186 C159.68735822 174.53021899 159.48559579 186.59291978 159.24420424 198.6575145 C158.99800808 211.08920478 158.8729902 223.51811023 158.85489404 235.95223773 C158.84134465 242.91743714 158.77461738 249.87306208 158.56773758 256.83543015 C156.65685716 290.42608044 156.65685716 290.42608044 170.93402469 319.40661442 C176.11001101 324.72501849 181.80147214 329.36219925 187.74946034 333.78615177 C193.92430053 338.43916593 197.54981977 343.6494593 200 351 C200.75612052 360.5163168 201.03427244 369.05707691 195 377 C189.46883669 383.34060184 182.66340532 387.20384012 174.3046875 388.37890625 C163.2263274 388.86812158 155.71146595 385.06532772 147.64020348 377.72881889 C143.93135351 374.21920178 141.32006872 370.64406846 138.62353516 366.31298828 C132.41527329 356.92872397 124.94318565 348.92264368 113.65049744 346.18925476 C93.9707976 342.98138696 73.51630558 344.10144562 53.66456437 344.68191552 C45.51015789 344.91510493 37.35621617 344.99510587 29.19903445 345.06482863 C12.46110404 345.21119837 -4.26762844 345.54196449 -21 346 C-20.72736328 346.88522339 -20.72736328 346.88522339 -20.44921875 347.78833008 C-19.62849004 350.46174862 -18.81417861 353.13707974 -18 355.8125 C-17.71382813 356.74126953 -17.42765625 357.67003906 -17.1328125 358.62695312 C-16.86210937 359.51962891 -16.59140625 360.41230469 -16.3125 361.33203125 C-16.06113281 362.15421143 -15.80976563 362.9763916 -15.55078125 363.82348633 C-15 366 -15 366 -15 369 C-13.81664062 368.96519531 -12.63328125 368.93039062 -11.4140625 368.89453125 C1.55779749 368.62554219 11.64347876 369.16894456 21.625 378.4375 C22.40875 379.283125 23.1925 380.12875 24 381 C24.680625 381.70125 25.36125 382.4025 26.0625 383.125 C31.09361913 390.59053161 32.44342522 398.17341926 32.62890625 407.0546875 C31.76117968 411.11845046 30.24825977 412.4366105 27 415 C24.01176972 415.49240165 21.59532922 415.67738709 18.61181641 415.63491821 C17.76986032 415.64271817 16.92790424 415.65051812 16.06043434 415.65855443 C13.24036472 415.67849153 10.42164203 415.66270344 7.6015625 415.64697266 C5.57939872 415.65374801 3.55724112 415.66265068 1.53509521 415.67352295 C-3.95665847 415.6963324 -9.44794292 415.68747297 -14.9397049 415.67162752 C-20.68426284 415.65897717 -26.42878034 415.67070624 -32.17333984 415.67855835 C-41.82071147 415.68765741 -51.46789178 415.67566017 -61.11523438 415.65185547 C-72.27221445 415.62464384 -83.4287377 415.63345781 -94.58570671 415.6609875 C-104.16121776 415.68367016 -113.73659121 415.68688273 -123.31212044 415.67379415 C-129.03276178 415.66599505 -134.75318833 415.6649708 -140.47381592 415.68147659 C-145.85183875 415.69590968 -151.22927206 415.68592043 -156.60723114 415.65700531 C-158.58212047 415.65038835 -160.55705933 415.65230255 -162.53192902 415.66331863 C-165.22589677 415.6769616 -167.91796976 415.65987424 -170.61181641 415.63491821 C-171.39537695 415.64607182 -172.17893749 415.65722543 -172.98624229 415.66871703 C-176.98645134 415.59672092 -178.80556048 415.15344346 -181.98495483 412.64439964 C-185.62874886 407.86254771 -184.69546101 402.73427287 -184 397 C-182.04728746 388.24725321 -177.81135318 380.60464724 -170.5703125 375.1796875 C-162.54082978 370.12770293 -155.42352888 368.68991502 -146.0625 368.875 C-145.18787109 368.88402344 -144.31324219 368.89304687 -143.41210938 368.90234375 C-141.27461936 368.9257043 -139.13727214 368.96156753 -137 369 C-136.85304687 368.14341797 -136.85304687 368.14341797 -136.703125 367.26953125 C-135.75082908 362.10578872 -134.49182823 357.14971982 -132.921875 352.13671875 C-132.5619043 350.98260498 -132.20193359 349.82849121 -131.83105469 348.6394043 C-131.55680664 347.76840088 -131.28255859 346.89739746 -131 346 C-132.03406982 346.02618408 -133.06813965 346.05236816 -134.13354492 346.0793457 C-137.98179359 346.17006423 -141.8299484 346.22732659 -145.67895508 346.2746582 C-147.34252839 346.29975347 -149.00599196 346.33383796 -150.66918945 346.37719727 C-153.06489153 346.4380746 -155.45913251 346.46625769 -157.85546875 346.48828125 C-158.96513252 346.52699089 -158.96513252 346.52699089 -160.09721375 346.56648254 C-164.08260254 346.56863162 -165.82625695 346.13528698 -169.0090332 343.65698242 C-171 341 -171 341 -171 338 C-177.27 338 -183.54 338 -190 338 C-190.33 339.65 -190.66 341.3 -191 343 C-193.01845564 345.02978866 -194.33846277 345.88448965 -197.16210747 346.37752342 C-197.94705652 346.3786545 -198.73200558 346.37978558 -199.54074097 346.38095093 C-200.4462973 346.3894104 -201.35185364 346.39786987 -202.28485107 346.40658569 C-203.76395966 346.39747665 -203.76395966 346.39747665 -205.27294922 346.38818359 C-206.31728119 346.39344055 -207.36161316 346.39869751 -208.43759155 346.40411377 C-211.8934419 346.41732847 -215.34883237 346.40856891 -218.8046875 346.3984375 C-221.20598438 346.40045811 -223.60728066 346.40336944 -226.00857544 346.40713501 C-231.04402502 346.41156062 -236.07931505 346.40512064 -241.11474609 346.39111328 C-247.56666234 346.37403988 -254.0182037 346.38384969 -260.47010612 346.40183067 C-265.43037737 346.41267768 -270.39055995 346.40921758 -275.35083389 346.4014473 C-277.72946339 346.39944688 -280.10810096 346.40189898 -282.48672104 346.40888596 C-285.81411767 346.41651319 -289.14091003 346.4048768 -292.46826172 346.38818359 C-293.45028564 346.39425629 -294.43230957 346.40032898 -295.4440918 346.40658569 C-300.66541654 346.35811132 -304.5909383 346.11728892 -309 343 C-313.18135577 338.16896925 -312.41731871 332.45719085 -312.38095093 326.42285156 C-312.3856309 325.23787708 -312.39031087 324.0529026 -312.39513266 322.83201981 C-312.40502924 319.54639968 -312.40146616 316.26111195 -312.39217401 312.97550011 C-312.3853895 309.43079227 -312.39586176 305.88612955 -312.40411377 302.34143066 C-312.41745972 295.39876494 -312.41456955 288.45619647 -312.40587585 281.51352692 C-312.39910309 275.87151796 -312.39818081 270.22953627 -312.4014473 264.58752441 C-312.401907 263.78479072 -312.40236669 262.98205702 -312.40284032 262.15499806 C-312.40379949 260.52430438 -312.40477213 258.89361071 -312.4057581 257.26291704 C-312.41431451 241.96876388 -312.40447392 226.67466466 -312.388357 211.38052034 C-312.37495358 198.2549553 -312.37728161 185.12946985 -312.39111328 172.00390625 C-312.40716465 156.76480676 -312.41349052 141.52575455 -312.40427649 126.2866478 C-312.40332083 124.66192373 -312.40237772 123.03719966 -312.4014473 121.41247559 C-312.40075306 120.21335537 -312.40075306 120.21335537 -312.40004479 118.9900105 C-312.39745357 113.35420933 -312.40182874 107.71843813 -312.40888596 102.0826416 C-312.41729624 95.21528999 -312.41503079 88.34804126 -312.39904372 81.48070145 C-312.3911546 77.97627855 -312.3880802 74.47202725 -312.39799118 70.96760559 C-312.40615508 67.17061386 -312.39594675 63.37410892 -312.38095093 59.57714844 C-312.38764309 58.46674824 -312.39433526 57.35634804 -312.40123022 56.21229935 C-312.32888211 46.80672173 -312.32888211 46.80672173 -309 43 C-304.86221356 40.35782158 -301.64975131 39.62079586 -296.78271484 39.59594727 C-294.97086197 39.57692101 -294.97086197 39.57692101 -293.12240601 39.55751038 C-291.8316214 39.56044601 -290.54083679 39.56338165 -289.2109375 39.56640625 C-287.8614577 39.5618406 -286.51198023 39.55653389 -285.1625061 39.55052185 C-282.34326692 39.54161475 -279.52431141 39.54398818 -276.70507812 39.55395508 C-273.09564794 39.56547378 -269.4871919 39.54517851 -265.87788963 39.51603794 C-263.09485688 39.49768402 -260.31205834 39.4979661 -257.52898026 39.50367546 C-255.55252169 39.5039029 -253.57608512 39.48701101 -251.59970093 39.46986389 C-249.79730453 39.48393532 -249.79730453 39.48393532 -247.95849609 39.49829102 C-246.37347794 39.49854027 -246.37347794 39.49854027 -244.75643921 39.49879456 C-241.29817044 40.12761421 -240.14330989 41.26566508 -238 44 C-237.67 44.99 -237.34 45.98 -237 47 C-230.73 47.33 -224.46 47.66 -218 48 C-217.67 46.35 -217.34 44.7 -217 43 C-214.67841989 40.44730598 -213.30493014 40.0328356 -209.85960388 39.66183472 C-208.00408653 39.6858989 -208.00408653 39.6858989 -206.11108398 39.71044922 C-205.42591202 39.7147142 -204.74074005 39.71897919 -204.0348053 39.72337341 C-202.54954521 39.7336599 -201.06431865 39.75034404 -199.57919121 39.77270126 C-197.21902812 39.80505856 -194.85990031 39.81365077 -192.49952698 39.81497192 C-185.78982005 39.82056967 -179.08094601 39.84919414 -172.37182617 39.94140625 C-168.26237555 39.99617948 -164.15475162 40.00640907 -160.04500008 39.98926163 C-158.4881821 39.99119058 -156.93128694 40.00941973 -155.37487602 40.04507065 C-147.24871723 40.22576734 -141.28695416 39.99419365 -134.67407227 34.60766602 C-133.09385496 33.09462063 -131.53254155 31.56131658 -130 30 C-94.2398118 0.67464371 -44.81272465 -9.25752416 0 0 Z " fill="#020201" transform="translate(312,50)"/>
<path d="M0 0 C1.33824736 0.44099826 2.67680015 0.88107054 4.015625 1.3203125 C17.50823177 5.91394928 29.21025021 12.64172614 40 22 C40.80824219 22.66386719 41.61648438 23.32773438 42.44921875 24.01171875 C61.68627954 40.34963066 76.38002793 66.04098768 78.82568359 91.37060547 C79.90875924 107.70775488 80.49786144 124.40770443 75 140 C74.63777344 141.16660156 74.27554688 142.33320313 73.90234375 143.53515625 C64.94437624 170.95564663 45.53907867 193.83932341 20.03076172 207.28540039 C-7.45758675 221.18819938 -35.62718159 223.28324772 -65.3359375 215.6796875 C-66.21507812 215.45539063 -67.09421875 215.23109375 -68 215 C-69.07121094 214.72542969 -69.07121094 214.72542969 -70.1640625 214.4453125 C-72.17707637 213.96692803 -72.17707637 213.96692803 -75 214 C-77.46172153 215.792191 -77.46172153 215.792191 -79 218 C-85.09624689 216.3523657 -90.66933194 213.34188389 -96 210 C-97 208 -97 208 -96.4375 204.9375 C-97.43473574 197.95684984 -103.77679716 194.56266033 -109.05859375 190.36328125 C-128.70480778 174.14800689 -142.18242555 146.68967126 -144.79931641 121.56542969 C-147.30972999 89.47367067 -139.67474682 60.08297912 -119 35 C-90.51442707 2.44131354 -42.12862556 -15.07268603 0 0 Z " fill="#FDE076" transform="translate(312,97)"/>
<path d="M0 0 C4.13147363 3.85695711 7.91645818 7.82873306 11.4375 12.25 C12.25863281 13.27222656 13.07976562 14.29445312 13.92578125 15.34765625 C28.24609336 33.72200318 37.09123771 54.13218654 41.65185547 76.87670898 C41.84150879 77.78751221 42.03116211 78.69831543 42.2265625 79.63671875 C42.38850098 80.45358154 42.55043945 81.27044434 42.71728516 82.11206055 C43.54543867 84.5704132 44.39164547 85.6735178 46.4375 87.25 C49.91141737 87.76739195 51.77458124 87.60695625 54.875 85.9375 C58.26616667 80.10469333 55.78871832 73.4687821 54.1953125 67.28125 C51.79707056 58.41048009 49.17195396 49.78702275 45.3203125 41.4296875 C44.4375 39.25 44.4375 39.25 44.4375 36.25 C55.9875 36.25 67.5375 36.25 79.4375 36.25 C79.4375 103.57 79.4375 170.89 79.4375 240.25 C75.37128044 236.76466895 71.55073733 233.48815147 67.81640625 229.7265625 C67.02685547 228.93378906 66.23730469 228.14101563 65.42382812 227.32421875 C64.2240332 226.11185547 64.2240332 226.11185547 63 224.875 C62.17306641 224.04355469 61.34613281 223.21210938 60.49414062 222.35546875 C58.47294469 220.3225896 56.45413665 218.28740037 54.4375 216.25 C54.92283203 214.87328125 54.92283203 214.87328125 55.41796875 213.46875 C56.88448899 208.83881636 57.1444213 205.105004 55.3984375 200.5234375 C52.77203648 196.13912664 49.4134163 192.90501459 45.75 189.375 C44.6971582 188.34246094 44.6971582 188.34246094 43.62304688 187.2890625 C41.90117145 185.60232739 40.17267426 183.92303303 38.4375 182.25 C39.72177196 179.00270867 41.05757026 175.78736 42.4609375 172.58984375 C50.75600603 153.57458793 58.61651634 133.44666333 57.4375 112.25 C56.30384463 110.24479805 56.30384463 110.24479805 54.4375 109.25 C49.84619277 108.65934384 49.84619277 108.65934384 45.77416992 110.45019531 C44.03142802 112.79676944 43.86646192 114.52255083 43.55078125 117.421875 C43.4216333 118.46738525 43.29248535 119.51289551 43.15942383 120.59008789 C43.02431396 121.71535889 42.8892041 122.84062988 42.75 124 C38.60721516 154.00759232 25.36462374 180.44358534 4.4375 202.25 C3.61894531 203.13171875 2.80039062 204.0134375 1.95703125 204.921875 C-21.69838477 229.66047846 -56.28611926 245.39820127 -90.5625 246.25 C-91.3884668 246.28109863 -92.21443359 246.31219727 -93.06542969 246.34423828 C-130.86477875 247.68507081 -166.29380345 234.92561298 -194.3125 209.3125 C-221.83278078 183.3853903 -239.13090128 149.08087072 -240.87109375 110.984375 C-240.9891567 106.05966835 -240.83112998 101.16731125 -240.5625 96.25 C-240.52382812 95.43611816 -240.48515625 94.62223633 -240.4453125 93.78369141 C-238.77805528 62.61456277 -226.04280356 33.62951169 -205.5625 10.25 C-204.88316406 9.44949219 -204.20382813 8.64898437 -203.50390625 7.82421875 C-199.19753484 2.82949948 -194.71346 -1.63256596 -189.5625 -5.75 C-188.02722656 -6.98363281 -188.02722656 -6.98363281 -186.4609375 -8.2421875 C-130.03373276 -52.23466947 -52.73712021 -46.20472767 0 0 Z M-182.359375 28.58203125 C-196.90418151 44.72570352 -205.4734136 64.11150252 -209.5625 85.25 C-209.739021 86.03238037 -209.91554199 86.81476074 -210.09741211 87.62084961 C-210.5942059 90.42923404 -210.69197625 93.03955834 -210.6953125 95.890625 C-210.69660156 96.96183594 -210.69789063 98.03304687 -210.69921875 99.13671875 C-210.69535156 100.24660156 -210.69148438 101.35648437 -210.6875 102.5 C-210.69136719 103.59441406 -210.69523437 104.68882812 -210.69921875 105.81640625 C-210.66292009 136.12578946 -197.54967248 162.61719099 -177.19921875 184.62890625 C-172.93743421 188.86543577 -168.29844602 192.55407117 -163.5625 196.25 C-163.2325 196.58 -162.9025 196.91 -162.5625 197.25 C-162.748125 198.466875 -162.93375 199.68375 -163.125 200.9375 C-163.27448009 203.13709039 -163.27448009 203.13709039 -162.5625 205.25 C-159.54860008 207.88350479 -156.15585272 209.52840862 -152.5625 211.25 C-150.83 212.178125 -150.83 212.178125 -149.0625 213.125 C-146.71543684 214.38678823 -146.71543684 214.38678823 -144.5625 214.25 C-144.005625 213.569375 -143.44875 212.88875 -142.875 212.1875 C-140.5625 210.25 -140.5625 210.25 -137.375 210.50390625 C-132.34880145 211.48751683 -127.49132261 212.89119049 -122.57421875 214.3125 C-96.03342952 221.1405322 -65.80649081 215.19129065 -42.31811523 201.93261719 C-14.16436791 185.16390464 3.72513675 159.23752217 12.03515625 128.00366211 C13.77520113 120.51360191 13.73347038 113.09539919 13.6875 105.4375 C13.69523438 104.16068359 13.70296875 102.88386719 13.7109375 101.56835938 C13.68770229 90.1540629 12.55161855 79.19989331 8.8125 68.375 C8.55380127 67.61815918 8.29510254 66.86131836 8.02856445 66.08154297 C-1.58000776 39.06892459 -21.9716316 16.10144912 -47.55517578 3.19238281 C-51.33870461 1.4161214 -55.21153993 -0.09876124 -59.125 -1.5625 C-59.86766113 -1.84053467 -60.61032227 -2.11856934 -61.37548828 -2.4050293 C-72.98649562 -6.5374409 -83.99321104 -8.26260151 -96.3125 -8.125 C-97.63072754 -8.11484863 -98.94895508 -8.10469727 -100.30712891 -8.09423828 C-132.31522446 -7.58592309 -160.37540231 5.38283063 -182.359375 28.58203125 Z " fill="#847D7C" transform="translate(377.5625,100.75)"/>
<path d="M0 0 C40.26 0 80.52 0 122 0 C121.12552944 4.37235281 119.83892692 8.0633205 118.125 12.125 C115.83083255 17.67886827 113.96682702 23.17267442 112.54296875 29.0234375 C112 31 112 31 111 32 C108.58269512 32.11962299 106.19264455 32.17541673 103.77392578 32.18945312 C103.01782013 32.19774643 102.26171448 32.20603973 101.48269653 32.21458435 C99.83538058 32.2320236 98.18803928 32.24717971 96.54068375 32.26036072 C93.93532984 32.28133035 91.33010271 32.30835892 88.724823 32.33703613 C83.19159708 32.39683879 77.65831242 32.4489229 72.125 32.5 C65.72190512 32.55918781 59.31887222 32.62150101 52.91588974 32.69187927 C50.34613771 32.71848264 47.77637962 32.73928269 45.20657349 32.7598877 C43.63266708 32.77649138 42.05876347 32.79336328 40.48486328 32.81054688 C39.40936218 32.8168235 39.40936218 32.8168235 38.31213379 32.82322693 C35.27057654 32.86173736 32.9095034 33.03016553 30 34 C30 57.43 30 80.86 30 105 C33.58019741 106.19339914 36.86419032 106.17584342 40.5925293 106.20532227 C41.36349945 106.21522186 42.1344696 106.22512146 42.92880249 106.23532104 C45.47724333 106.26690956 48.02570282 106.291683 50.57421875 106.31640625 C52.3411355 106.33697806 54.10804736 106.3579746 55.87495422 106.37937927 C60.52572667 106.43457645 65.17654336 106.48399612 69.82739258 106.53222656 C74.57311949 106.58245876 79.31878214 106.63813586 84.06445312 106.69335938 C93.37624719 106.80091216 102.68809705 106.90236356 112 107 C113.00736628 109.93502595 114.00460504 112.87339461 115 115.8125 C115.28617187 116.64587891 115.57234375 117.47925781 115.8671875 118.33789062 C116.27324219 119.54155273 116.27324219 119.54155273 116.6875 120.76953125 C116.93886719 121.50792236 117.19023437 122.24631348 117.44921875 123.00708008 C118 125 118 125 118 128 C116.92924728 128.00586624 115.85849457 128.01173248 114.7552948 128.01777649 C104.67552164 128.07493366 94.59596568 128.14765833 84.51641369 128.23571491 C79.33411901 128.28048548 74.15190416 128.31972676 68.96948242 128.34643555 C63.97025134 128.37240193 58.9713264 128.41275674 53.97228432 128.46318626 C52.06290806 128.4799002 50.15347879 128.4913862 48.24403954 128.49761391 C45.57406727 128.50720594 42.90488624 128.53520561 40.23510742 128.56762695 C39.44172974 128.56619186 38.64835205 128.56475677 37.83093262 128.5632782 C33.68148898 128.61676213 33.68148898 128.61676213 30.00093079 130.33952332 C28.45396787 132.90583049 28.75603538 135.07242462 29 138 C29.33 138.99 29.66 139.98 30 141 C34.08353555 142.53684875 38.4460569 142.05167907 42.74072266 141.95141602 C44.56831594 141.91866898 46.39592305 141.88668681 48.22354126 141.85536194 C49.19101917 141.83771349 50.15849709 141.82006504 51.15529251 141.80188179 C57.36848962 141.70281091 63.58250078 141.67857324 69.79633522 141.64428806 C75.25199254 141.60999524 80.70432928 141.54687769 86.15869141 141.4206543 C91.44227392 141.29987269 96.72134585 141.25794922 102.00623703 141.26872063 C104.01347887 141.2589159 106.02079796 141.22097735 108.02693558 141.15368843 C123.31180533 140.66487999 123.31180533 140.66487999 127.83031464 144.58991623 C131.45050164 148.94934298 133.7819647 153.8257534 136 159 C136.6586308 160.33732109 137.32321686 161.67177306 138 163 C137.45646976 163.00238835 136.91293951 163.00477671 136.35293865 163.00723743 C123.13295979 163.06635103 109.91316603 163.14206708 96.69338512 163.23571491 C90.30040426 163.28049849 83.9074883 163.31973698 77.5144043 163.34643555 C71.34811028 163.37238881 65.18206501 163.41273449 59.01592445 163.46318626 C56.65996703 163.47990906 54.30396654 163.49138949 51.94795799 163.49761391 C48.6553865 163.50719612 45.36345921 163.53518511 42.07104492 163.56762695 C40.60045624 163.56547432 40.60045624 163.56547432 39.10015869 163.5632782 C38.20413437 163.57581635 37.30811005 163.58835449 36.38493347 163.60127258 C35.21656086 163.60818603 35.21656086 163.60818603 34.02458477 163.61523914 C31.4513137 164.10427472 30.55415873 164.91882902 29 167 C28.71399811 170.43202271 28.90809958 172.72429875 30 176 C32.9309621 177.13760295 35.77811434 177.11478283 38.89346313 177.09092712 C39.87738037 177.08626434 40.86129761 177.08160156 41.87503052 177.07679749 C43.48497391 177.06186501 43.48497391 177.06186501 45.12744141 177.04663086 C47.48084343 177.03385629 49.83424728 177.02141575 52.18765259 177.00926208 C54.06010588 176.99738767 54.06010588 176.99738767 55.97038651 176.98527336 C63.27361722 176.94683085 70.57695614 176.95468828 77.88026929 176.9552325 C85.60396416 176.95496811 93.32684821 176.93832379 101.05029297 176.87329102 C107.85047482 176.81616163 114.64914294 176.81166694 121.44950485 176.83798409 C124.03700363 176.83921725 126.62457521 176.8227698 129.21184158 176.78806877 C150.57003262 176.51675762 150.57003262 176.51675762 155.73719788 180.19618225 C158.22260897 182.67191235 160.07482687 185.08392759 162 188 C164.27497314 190.03742722 166.69548178 191.80027962 169.1875 193.5625 C169.82131592 194.01665283 170.45513184 194.47080566 171.1081543 194.9387207 C187.40950647 206.45490864 204.60302868 215.08482185 224 220 C225.83334904 220.54161352 227.66668315 221.08327755 229.5 221.625 C252.52361123 227.76358682 278.01753401 226.70721153 301 221 C301.76586426 220.81276367 302.53172852 220.62552734 303.32080078 220.43261719 C315.11738678 217.46230917 326.54831511 213.12066375 337.20703125 207.2265625 C340.31910848 205.85986005 340.93692433 205.82717936 344 207 C345.76757813 208.45874023 345.76757813 208.45874023 347.53125 210.30859375 C348.17707031 210.97310547 348.82289063 211.63761719 349.48828125 212.32226562 C350.48408203 213.36930664 350.48408203 213.36930664 351.5 214.4375 C352.81813696 215.81578496 354.14090068 217.18966327 355.46875 218.55859375 C356.05076172 219.17017334 356.63277344 219.78175293 357.23242188 220.41186523 C360.19460407 223.07332866 362.33292306 223.94965457 366.3125 224.25 C370.13161223 223.99107714 373.34646438 223.09998922 377 222 C379.99388876 224.96924302 382.98453546 227.94170145 385.97216797 230.91723633 C386.98982788 231.9298551 388.00838179 232.94157623 389.02783203 233.95239258 C390.48964407 235.4021294 391.94825242 236.85502208 393.40625 238.30859375 C394.28603516 239.18314209 395.16582031 240.05769043 396.07226562 240.95874023 C398 243 398 243 398 244 C397.43867095 244.00097681 396.8773419 244.00195362 396.29900289 244.00296003 C363.04720852 244.06120268 329.79548931 244.13497712 296.54377742 244.22898628 C292.5532738 244.24025476 288.56276983 244.25139316 284.57226562 244.26245117 C283.38058419 244.2657567 283.38058419 244.2657567 282.16482839 244.269129 C269.29268668 244.3045238 256.42054502 244.3293756 243.54837266 244.35034702 C230.34524943 244.37209171 217.14218948 244.4051294 203.93912005 244.44870156 C195.78882697 244.47524131 187.63861277 244.49291954 179.4882786 244.49934604 C173.24385568 244.50521213 166.99957771 244.5267725 160.75521469 244.55427551 C158.18971629 244.56309648 155.62419445 244.56676999 153.05868149 244.56500816 C149.56537963 244.5633661 146.07263275 244.57996388 142.57940674 244.60127258 C141.55606586 244.59642501 140.53272498 244.59157743 139.47837377 244.58658296 C138.54382635 244.5960395 137.60927893 244.60549604 136.6464119 244.61523914 C135.83988591 244.61713775 135.03335993 244.61903635 134.20239377 244.62099248 C131.43715955 245.09685859 130.05131165 246.11662984 128 248 C127.20376178 250.09415804 127.20376178 250.09415804 127 252 C123.75068073 252.17455021 120.50256552 252.28091753 117.25 252.375 C116.32960938 252.42527344 115.40921875 252.47554687 114.4609375 252.52734375 C111.84522453 252.58420708 109.55516718 252.57122182 107 252 C104.484375 249.0390625 104.484375 249.0390625 103 246 C72.28554448 230.64277224 34.33812218 244.33998141 0 244 C0 163.48 0 82.96 0 0 Z " fill="#FCDE75" transform="translate(15,136)"/>
<path d="M0 0 C0.69749359 0.00498505 1.39498718 0.00997009 2.11361694 0.0151062 C37.88180694 0.31390229 68.92502099 13.79274278 94.1875 39.375 C119.36694565 65.69048798 129.1219363 98.83581565 128.5700531 134.64318848 C127.79795875 168.82662337 111.05182999 198.63341287 86.8515625 222.015625 C61.546318 245.70165502 28.20129777 255.38535708 -5.8359375 254.6640625 C-13.70469614 254.36726938 -21.17174351 253.23549638 -28.8125 251.375 C-30.68615234 250.92253906 -30.68615234 250.92253906 -32.59765625 250.4609375 C-42.37444282 247.79749398 -42.37444282 247.79749398 -45.8125 242.375 C-45.8125 238.57215329 -45.6093187 236.35569994 -43.1875 233.375 C-37.08129947 230.8039682 -28.87977593 234.68711578 -22.82421875 236.4375 C3.71602844 243.26539276 33.94453031 237.31687739 57.43212891 224.05737305 C85.25834473 207.48520322 102.57734633 181.97835944 110.78515625 151.12866211 C112.52520113 143.63860191 112.48347038 136.22039919 112.4375 128.5625 C112.44523438 127.28568359 112.45296875 126.00886719 112.4609375 124.69335938 C112.43770229 113.2790629 111.30161855 102.32489331 107.5625 91.5 C107.30380127 90.74315918 107.04510254 89.98631836 106.77856445 89.20654297 C102.29759737 76.60918188 95.68637444 65.69303151 87.1875 55.375 C86.41664063 54.43914062 85.64578125 53.50328125 84.8515625 52.5390625 C72.86142913 38.68638414 57.71781431 28.95566982 40.625 22.5625 C39.88233887 22.28446533 39.13967773 22.00643066 38.37451172 21.7199707 C26.76350438 17.5875591 15.75678896 15.86239849 3.4375 16 C2.11927246 16.01015137 0.80104492 16.02030273 -0.55712891 16.03076172 C-27.71685979 16.46208085 -52.22751931 25.55284281 -72.8125 43.375 C-73.57191895 44.03145508 -73.57191895 44.03145508 -74.34667969 44.70117188 C-93.14995808 61.34273747 -104.10340691 84.03138317 -108.8125 108.375 C-108.989021 109.15738037 -109.16554199 109.93976074 -109.34741211 110.74584961 C-109.8442059 113.55423404 -109.94197625 116.16455834 -109.9453125 119.015625 C-109.94660156 120.08683594 -109.94789063 121.15804687 -109.94921875 122.26171875 C-109.94535156 123.37160156 -109.94148437 124.48148437 -109.9375 125.625 C-109.94136719 126.71941406 -109.94523438 127.81382812 -109.94921875 128.94140625 C-109.91349748 158.76866381 -97.18036785 185.19242029 -77.22265625 206.98046875 C-73.72954169 210.45093751 -69.96313528 213.51795955 -66.09765625 216.5625 C-63.8125 218.375 -63.8125 218.375 -61.8125 220.375 C-61.38005399 224.26701406 -61.23403535 226.50730302 -63.4375 229.8125 C-66.55917959 231.86623658 -68.11104718 231.80260466 -71.8125 231.375 C-74.14851399 229.9710468 -76.05085724 228.6535039 -78.125 226.9375 C-78.69259033 226.48157471 -79.26018066 226.02564941 -79.8449707 225.5559082 C-104.20442339 205.68435808 -121.47037275 175.60244388 -125.53564453 144.30273438 C-127.03307504 128.46747275 -127.12948984 111.7717166 -122.8125 96.375 C-122.62445801 95.6850293 -122.43641602 94.99505859 -122.24267578 94.28417969 C-116.25436387 72.83678093 -105.06454052 54.49566595 -89.8125 38.375 C-88.67361328 37.13943359 -88.67361328 37.13943359 -87.51171875 35.87890625 C-74.39348119 22.11656537 -57.65050639 12.09139628 -39.6875 6 C-39.02073242 5.77344727 -38.35396484 5.54689453 -37.66699219 5.31347656 C-25.19455302 1.36198916 -13.04270511 -0.15793801 0 0 Z " fill="#030201" transform="translate(277.8125,77.625)"/>
<path d="M0 0 C1.33824736 0.44099826 2.67680015 0.88107054 4.015625 1.3203125 C17.50823177 5.91394928 29.21025021 12.64172614 40 22 C40.80824219 22.66386719 41.61648438 23.32773438 42.44921875 24.01171875 C61.68627954 40.34963066 76.38002793 66.04098768 78.82568359 91.37060547 C79.90875924 107.70775488 80.49786144 124.40770443 75 140 C74.63777344 141.16660156 74.27554688 142.33320313 73.90234375 143.53515625 C64.94437624 170.95564663 45.53907867 193.83932341 20.03076172 207.28540039 C-7.45758675 221.18819938 -35.62718159 223.28324772 -65.3359375 215.6796875 C-66.21507812 215.45539063 -67.09421875 215.23109375 -68 215 C-69.07121094 214.72542969 -69.07121094 214.72542969 -70.1640625 214.4453125 C-72.17707637 213.96692803 -72.17707637 213.96692803 -75 214 C-77.46172153 215.792191 -77.46172153 215.792191 -79 218 C-85.09624689 216.3523657 -90.66933194 213.34188389 -96 210 C-97 208 -97 208 -96.4375 204.9375 C-97.43473574 197.95684984 -103.77679716 194.56266033 -109.05859375 190.36328125 C-128.70480778 174.14800689 -142.18242555 146.68967126 -144.79931641 121.56542969 C-147.30972999 89.47367067 -139.67474682 60.08297912 -119 35 C-90.51442707 2.44131354 -42.12862556 -15.07268603 0 0 Z M-98 28 C-98.86882812 28.71929687 -99.73765625 29.43859375 -100.6328125 30.1796875 C-119.25815588 46.18495199 -133.15983274 70.06675226 -135.33398438 94.79931641 C-135.50915596 98.87205579 -135.57943495 102.92438005 -135.5625 107 C-135.5620166 107.72033417 -135.5615332 108.44066833 -135.56103516 109.18283081 C-135.43345131 136.65019013 -124.74842769 160.12020167 -106 180 C-105.39671875 180.67933594 -104.7934375 181.35867188 -104.171875 182.05859375 C-94.48505459 192.52457145 -81.21114878 199.92478741 -68 205 C-67.34741211 205.2568457 -66.69482422 205.51369141 -66.02246094 205.77832031 C-43.57541258 214.1892153 -14.48371633 212.70718599 7.2734375 203.16796875 C32.16773023 191.64652384 50.24735661 173.59401147 62 149 C62.61294922 147.74509766 62.61294922 147.74509766 63.23828125 146.46484375 C73.49764936 123.37136264 72.87393708 95.50793459 64.234375 72.09765625 C58.7842481 58.08774514 51.42197207 46.88997081 41 36 C40.32582031 35.25105469 39.65164063 34.50210938 38.95703125 33.73046875 C23.05636253 16.69616886 -1.94806663 5.60366852 -25.14453125 4.62890625 C-52.38567033 4.12210383 -76.89628576 10.02740064 -98 28 Z " fill="#FBCE5A" transform="translate(312,97)"/>
<path d="M0 0 C11.55 0 23.1 0 35 0 C35 67.32 35 134.64 35 204 C30.93378044 200.51466895 27.11323733 197.23815147 23.37890625 193.4765625 C22.58935547 192.68378906 21.79980469 191.89101563 20.98632812 191.07421875 C20.18646484 190.26597656 19.38660156 189.45773437 18.5625 188.625 C17.32209961 187.37783203 17.32209961 187.37783203 16.05664062 186.10546875 C14.03544469 184.0725896 12.01663665 182.03740037 10 180 C10.48533203 178.62328125 10.48533203 178.62328125 10.98046875 177.21875 C12.44698899 172.58881636 12.7069213 168.855004 10.9609375 164.2734375 C8.33453648 159.88912664 4.9759163 156.65501459 1.3125 153.125 C0.2596582 152.09246094 0.2596582 152.09246094 -0.81445312 151.0390625 C-2.53632855 149.35232739 -4.26482574 147.67303303 -6 146 C-4.71572804 142.75270867 -3.37992974 139.53736 -1.9765625 136.33984375 C6.31850603 117.32458793 14.17901634 97.19666333 13 76 C11.18085562 73.36932116 10.09337429 73.03112476 7 72 C6.67 65.4 6.34 58.8 6 52 C7.65 51.01 9.3 50.02 11 49 C15.43337847 40.13324306 7.91323359 23.77659939 5 15 C3.76168257 11.66407644 2.37244018 8.41189851 0.8828125 5.1796875 C0 3 0 3 0 0 Z " fill="#FDDF76" transform="translate(422,137)"/>
<path d="M0 0 C40.26 0 80.52 0 122 0 C122 0.33 122 0.66 122 1 C88.01 1 54.02 1 19 1 C19 81.19 19 161.38 19 244 C12.73 244 6.46 244 0 244 C0 163.48 0 82.96 0 0 Z " fill="#FBCE5A" transform="translate(15,136)"/>
<path d="M0 0 C8.35256341 6.71836622 14.03399539 14.03981249 15.28515625 24.859375 C15.70975858 35.52886939 13.36871529 44.18691695 6.8125 52.6875 C0.73065574 59.11841258 -8.67953998 63.32677515 -17.46948242 63.70629883 C-27.66105454 63.91909381 -34.98975193 61.55466145 -43 54.9375 C-44.051875 53.638125 -44.051875 53.638125 -45.125 52.3125 C-45.62515625 51.72726563 -46.1253125 51.14203125 -46.640625 50.5390625 C-53.41538695 42.21860244 -55.14976616 33.94444893 -54.125 23.3125 C-52.43646552 14.48990737 -47.28548444 6.21206893 -40.21875 0.6640625 C-26.54343156 -8.16366172 -13.90557453 -7.50901025 0 0 Z " fill="#030301" transform="translate(361.125,175.6875)"/>
<path d="M0 0 C1.19581936 3.46707359 0.77447408 5.53816787 -0.3125 9 C-3.75176281 20.00564098 -4.34799759 30.9228535 -4.31567383 42.35229492 C-4.31252788 44.66699025 -4.33601249 46.98038462 -4.36132812 49.29492188 C-4.42076204 63.1319088 -2.4772046 76.48380959 1.5625 89.75 C1.80500488 90.55856445 2.04750977 91.36712891 2.29736328 92.20019531 C5.48160089 102.24737889 10.21513472 111.6347266 15 121 C15.99 121 16.98 121 18 121 C19.54296875 123.2734375 19.54296875 123.2734375 21.1875 126.375 C24.59996911 132.47022784 28.45795386 137.70945187 33 143 C33.68835938 143.82242188 34.37671875 144.64484375 35.0859375 145.4921875 C40.10336955 151.30661237 45.5401867 156.16142783 51.49609375 160.96875 C53.95493143 162.96343892 56.02862239 165.03098617 58.17578125 167.35546875 C61.26492619 170.24807058 64.50068593 172.2984451 68.1875 174.3125 C68.88383545 174.69567383 69.5801709 175.07884766 70.29760742 175.47363281 C84.31169424 183.05050031 98.37269572 188.73732996 114 192 C114.86737793 192.18691406 115.73475586 192.37382812 116.62841797 192.56640625 C124.79977217 194.14228034 132.80097318 194.30694944 141.08984375 194.26074219 C143.36485642 194.25004768 145.63907404 194.26068422 147.9140625 194.2734375 C160.23795117 194.28571254 171.96317412 193.23054012 183.79296875 189.48828125 C186 189 186 189 189 190 C171.92954979 197.08317436 155.600304 202.29724879 137 203 C136.16243164 203.03399902 135.32486328 203.06799805 134.46191406 203.10302734 C96.67824627 204.43172826 61.25500489 191.66309684 33.25 166.0625 C5.72971922 140.1353903 -11.56840128 105.83087072 -13.30859375 67.734375 C-13.4266567 62.80966835 -13.26862998 57.91731125 -13 53 C-12.96132812 52.18611816 -12.92265625 51.37223633 -12.8828125 50.53369141 C-11.94050336 32.91736067 -7.4789155 15.98369993 0 0 Z " fill="#746C6C" transform="translate(150,144)"/>
<path d="M0 0 C1.6484375 1.57421875 1.6484375 1.57421875 3.375 3.6875 C7.74201304 8.88589 12.36798681 13.40398081 17.64453125 17.66796875 C18.09183594 18.10753906 18.53914063 18.54710937 19 19 C19 19.66 19 20.32 19 21 C19.66 21 20.32 21 21 21 C22.515625 22.57421875 22.515625 22.57421875 24.25 24.6875 C26.41897174 27.24634889 28.40724173 29.33936811 31 31.5 C33.40860972 33.50717476 35.22091343 35.32826174 37.2253418 37.69238281 C40.77402292 41.79441386 44.52616306 45.62309533 48.39453125 49.421875 C49.77551949 50.79023454 51.1563751 52.15872795 52.53710938 53.52734375 C54.68586341 55.65117254 56.83620834 57.773344 58.98901367 59.89306641 C61.08689495 61.96079821 63.17855458 64.03466458 65.26953125 66.109375 C65.91533646 66.74172058 66.56114166 67.37406616 67.22651672 68.02557373 C67.82441513 68.62009338 68.42231354 69.21461304 69.03833008 69.82714844 C69.56348709 70.34484802 70.0886441 70.86254761 70.62971497 71.39593506 C73.12677651 74.31901221 73.95713014 76.53700555 74.3125 80.375 C73.84887988 85.75299344 72.39473143 88.70732209 68.4375 92.375 C63.73527662 94.59786923 60.0945622 95.06054941 55 94 C52.99332237 92.64198875 52.99332237 92.64198875 51.11312866 90.8843689 C50.42553844 90.24808941 49.73794823 89.61180992 49.02952194 88.95624924 C48.3597797 88.31068699 47.69003746 87.66512474 47 87 C46.41701771 86.44079487 45.83403542 85.88158974 45.23338699 85.305439 C43.4930477 83.60786969 41.77644956 81.88921437 40.06494141 80.16259766 C39.10240448 79.19787033 39.10240448 79.19787033 38.12042236 78.21365356 C36.7432749 76.83273276 35.36728254 75.4506592 33.99235916 74.06752396 C31.81765611 71.87995552 29.639755 69.69561584 27.46102905 67.51205444 C22.8461909 62.88585082 18.23532257 58.25570313 13.625 53.625 C8.2598971 48.23629775 2.89318033 42.84922336 -2.47774124 37.46632004 C-4.62582971 35.31173863 -6.7708925 33.15417529 -8.91586304 30.99649048 C-10.22419792 29.68452546 -11.53267206 28.37269929 -12.84130859 27.06103516 C-13.43869843 26.458479 -14.03608826 25.85592285 -14.65158081 25.23510742 C-17.54667683 22.25059333 -17.54667683 22.25059333 -21 20 C-18.76996268 14.94889878 -14.92524884 11.59576226 -11.0625 7.75 C-10.33353516 7.00492187 -9.60457031 6.25984375 -8.85351562 5.4921875 C-8.15033203 4.78835938 -7.44714844 4.08453125 -6.72265625 3.359375 C-6.08078369 2.71452148 -5.43891113 2.06966797 -4.77758789 1.40527344 C-3 0 -3 0 0 0 Z " fill="#756D6D" transform="translate(423,328)"/>
<path d="M0 0 C21.12 0 42.24 0 64 0 C64 14.85 64 29.7 64 45 C42.88 45 21.76 45 0 45 C0 30.15 0 15.3 0 0 Z " fill="#F1FAFE" transform="translate(59,183)"/>
<path d="M0 0 C1.5052796 -0.00570793 3.01055487 -0.01267382 4.51582336 -0.02079773 C8.59025897 -0.03869759 12.66447884 -0.03756679 16.73894191 -0.03185534 C20.14593979 -0.02875892 23.5528965 -0.03486098 26.95988852 -0.04089409 C34.99998674 -0.05492725 43.03997869 -0.05338808 51.08007812 -0.04199219 C59.36273805 -0.03051161 67.64507414 -0.04458828 75.9276914 -0.07138866 C83.05063938 -0.09357004 90.17348588 -0.10017757 97.29646593 -0.09431225 C101.5455565 -0.09094735 105.79443951 -0.09332655 110.0435009 -0.11056328 C114.04014183 -0.12606939 118.03630428 -0.12203667 122.03292656 -0.10325813 C123.49538585 -0.09958236 124.95788089 -0.10265115 126.42030716 -0.11314392 C135.49125239 -0.17323322 142.11410398 0.09397808 149.25415039 6.15014648 C149.70918945 6.70831055 150.16422852 7.26647461 150.63305664 7.84155273 C151.10614258 8.39713867 151.57922852 8.95272461 152.06665039 9.52514648 C153.19555664 11.40405273 153.19555664 11.40405273 154.19555664 16.40405273 C93.47555664 16.40405273 32.75555664 16.40405273 -29.80444336 16.40405273 C-28.87248596 11.74426574 -28.58113192 10.59712709 -25.67944336 7.27905273 C-25.11999023 6.61647461 -24.56053711 5.95389648 -23.98413086 5.27124023 C-16.89061947 -0.80528027 -8.87936593 -0.03038035 0 0 Z " fill="#867F7E" transform="translate(173.804443359375,433.595947265625)"/>
<path d="M0 0 C6.6 0 13.2 0 20 0 C20.99 2.97 20.99 2.97 22 6 C24.96180868 7.43836659 28.33503948 7.1539308 31.59472656 7.20532227 C32.71558655 7.22526749 33.83644653 7.24521271 34.99127197 7.26576233 C36.79770172 7.29083107 36.79770172 7.29083107 38.640625 7.31640625 C39.87794373 7.33718735 41.11526245 7.35796844 42.39007568 7.37937927 C45.67138691 7.43365872 48.95272733 7.48391779 52.23413086 7.53222656 C55.58583104 7.58256092 58.9374372 7.6382636 62.2890625 7.69335938 C68.85930464 7.80044509 75.42961298 7.90223036 82 8 C81.34305638 9.3381507 80.67318883 10.66994774 80 12 C79.50809677 12.97935139 79.01619354 13.95870277 78.50938416 14.96773148 C73.73330644 23.32995825 73.73330644 23.32995825 69.17703247 25.09127045 C65.7536812 25.478208 62.50959089 25.48649153 59.06640625 25.36230469 C57.78752029 25.36405701 56.50863434 25.36580933 55.19099426 25.36761475 C51.70398526 25.37104145 48.22198666 25.3008027 44.73613739 25.21672726 C41.08623585 25.1414128 37.4362032 25.13463994 33.78564453 25.12042236 C26.88223733 25.08320872 19.98112628 24.9848614 13.07872772 24.86422849 C5.21686504 24.72982716 -2.64511075 24.66405449 -10.5078373 24.60388327 C-26.67327115 24.47864435 -42.83625131 24.26531811 -59 24 C-59 18.39 -59 12.78 -59 7 C-30.785 6.505 -30.785 6.505 -2 6 C-1.34 4.02 -0.68 2.04 0 0 Z " fill="#F1FAFE" transform="translate(74,98)"/>
<path d="M0 0 C3.75358184 1.87969168 6.97013463 3.88675524 9.52734375 7.265625 C10.27734375 10.328125 10.27734375 10.328125 9.52734375 13.265625 C7.46484375 16.203125 7.46484375 16.203125 4.52734375 18.265625 C0.22188206 18.34686013 -2.7635724 17.19756467 -6.47265625 15.203125 C-10.26879076 13.18343402 -13.1284658 12.66936357 -17.47265625 13.265625 C-19.41635363 14.61992341 -19.41635363 14.61992341 -20.47265625 16.265625 C-19.81525572 19.36101202 -19.81525572 19.36101202 -17.52661133 20.35302734 C-16.27207153 20.84730225 -16.27207153 20.84730225 -14.9921875 21.3515625 C-14.07501953 21.72539062 -13.15785156 22.09921875 -12.21289062 22.484375 C-10.28063279 23.2474815 -8.34834181 24.01050408 -6.41601562 24.7734375 C1.41841673 27.96625571 7.25808665 31.15632234 10.83203125 39.16015625 C12.49911788 44.2082444 12.12465818 48.46872237 10.02734375 53.328125 C6.65170331 59.41869335 1.19766303 64.20495536 -5.47265625 66.265625 C-17.79864371 67.41188229 -26.15114494 65.61372007 -35.72265625 57.88671875 C-38.27929635 55.51840259 -38.45440432 54.42989234 -38.84765625 50.890625 C-38.47265625 47.265625 -38.47265625 47.265625 -36.34765625 44.765625 C-33.47265625 43.265625 -33.47265625 43.265625 -30.47265625 43.265625 C-27.08938013 44.39338371 -25.14980832 45.94072978 -22.47265625 48.265625 C-19.40125758 50.12153398 -17.04778539 50.56177532 -13.47265625 50.578125 C-12.62703125 50.59488281 -11.78140625 50.61164063 -10.91015625 50.62890625 C-8.0193509 50.19806507 -6.6443935 49.17092226 -4.47265625 47.265625 C-4.81552237 44.77984562 -5.17082032 43.54774301 -7.02734375 41.8125 C-10.88303888 39.37343407 -15.1635871 38.07978516 -19.453125 36.60351562 C-25.76539577 34.35083143 -31.57547777 31.7236967 -34.7734375 25.44921875 C-36.50030566 20.05637348 -36.53098467 14.23089541 -34.625 8.890625 C-27.39099023 -4.05702639 -12.61307641 -5.13933099 0 0 Z " fill="#050402" transform="translate(223.47265625,172.734375)"/>
<path d="M0 0 C25.74 0 51.48 0 78 0 C84 23 84 23 84 25 C54.3 25 24.6 25 -6 25 C-4 14 -4 14 0 0 Z " fill="#756D6D" transform="translate(197,395)"/>
<path d="M0 0 C1.76923828 -0.00773438 1.76923828 -0.00773438 3.57421875 -0.015625 C5.40919922 0.00757813 5.40919922 0.00757813 7.28125 0.03125 C8.50457031 0.01578125 9.72789062 0.0003125 10.98828125 -0.015625 C12.16777344 -0.01046875 13.34726562 -0.0053125 14.5625 0 C16.1722168 0.00676758 16.1722168 0.00676758 17.81445312 0.01367188 C21.49564649 0.65588138 23.18032111 1.88298846 25.78125 4.53125 C26.34375 8.03125 26.34375 8.03125 25.78125 11.53125 C23.91416495 13.89622439 22.46063569 15.19155715 19.78125 16.53125 C17.06364892 16.60306821 14.37265612 16.62424506 11.65625 16.59375 C10.90214844 16.58923828 10.14804687 16.58472656 9.37109375 16.58007812 C7.50777873 16.56828499 5.64450445 16.55034942 3.78125 16.53125 C3.78125 20.16125 3.78125 23.79125 3.78125 27.53125 C5.31845703 27.46164063 5.31845703 27.46164063 6.88671875 27.390625 C8.24736656 27.35308989 9.60804605 27.31669159 10.96875 27.28125 C11.64228516 27.24773437 12.31582031 27.21421875 13.00976562 27.1796875 C16.5918875 27.10979244 18.63628672 27.44477058 21.734375 29.29296875 C23.89904342 31.66005846 24.44656145 32.45497696 24.34375 35.59375 C23.78125 39.53125 23.78125 39.53125 22.26171875 41.265625 C18.73292951 43.06614108 15.39095517 42.85172571 11.53125 42.71875 C10.78617187 42.70521484 10.04109375 42.69167969 9.2734375 42.67773438 C7.44239584 42.64252204 5.61172831 42.58871851 3.78125 42.53125 C3.78125 46.49125 3.78125 50.45125 3.78125 54.53125 C4.95042969 54.48484375 6.11960937 54.4384375 7.32421875 54.390625 C8.8723702 54.35309406 10.42054939 54.31669531 11.96875 54.28125 C12.73767578 54.24773437 13.50660156 54.21421875 14.29882812 54.1796875 C18.26866 54.11153588 20.30665092 54.2484578 23.796875 56.328125 C25.78125 58.53125 25.78125 58.53125 26.34375 62.03125 C25.6862711 66.12222979 25.02322061 67.05648361 21.78125 69.53125 C18.72851562 70.04882812 18.72851562 70.04882812 15.1875 70.0625 C13.91003906 70.06765625 12.63257813 70.0728125 11.31640625 70.078125 C10.65398926 70.06974609 9.99157227 70.06136719 9.30908203 70.05273438 C7.28686552 70.0313095 5.26820039 70.05254739 3.24609375 70.078125 C1.96863281 70.07296875 0.69117188 70.0678125 -0.625 70.0625 C-1.79353516 70.05798828 -2.96207031 70.05347656 -4.16601562 70.04882812 C-7.92529585 69.41145816 -8.88496755 68.49769887 -11.21875 65.53125 C-11.7334137 62.76135254 -11.7334137 62.76135254 -11.75219727 59.54101562 C-11.7680336 58.33296265 -11.78386993 57.12490967 -11.80018616 55.88024902 C-11.79522629 54.57914185 -11.79026642 53.27803467 -11.78515625 51.9375 C-11.7903929 50.58516003 -11.79666954 49.23282373 -11.80393982 47.88049316 C-11.81433847 45.04922268 -11.80979062 42.21845496 -11.79516602 39.38720703 C-11.77797052 35.76180585 -11.80148213 32.13798844 -11.83665562 28.51276398 C-11.85863257 25.72110527 -11.85718789 22.9298255 -11.8488903 20.1381073 C-11.84767328 18.15277979 -11.86760331 16.16747579 -11.88783264 14.18225098 C-11.87529953 12.974198 -11.86276642 11.76614502 -11.84985352 10.52148438 C-11.84889175 9.45877319 -11.84792999 8.39606201 -11.84693909 7.30114746 C-11.21875 4.53125 -11.21875 4.53125 -8.86473083 2.18920898 C-5.67151965 0.18835807 -3.74811114 0.01575782 0 0 Z " fill="#050402" transform="translate(264.21875,169.46875)"/>
<path d="M0 0 C6.36143075 2.94355677 10.69165482 7.5798238 15 13 C16.0665761 13.91572042 17.1507967 14.81121205 18.25 15.6875 C19.1575 16.450625 20.065 17.21375 21 18 C21 18.66 21 19.32 21 20 C21.66 20 22.32 20 23 20 C24.515625 21.57421875 24.515625 21.57421875 26.25 23.6875 C28.41897174 26.24634889 30.40724173 28.33936811 33 30.5 C35.40860972 32.50717476 37.22091343 34.32826174 39.2253418 36.69238281 C42.77402292 40.79441386 46.52616306 44.62309533 50.39453125 48.421875 C51.77551949 49.79023454 53.1563751 51.15872795 54.53710938 52.52734375 C56.68586341 54.65117254 58.83620834 56.773344 60.98901367 58.89306641 C63.08689495 60.96079821 65.17855458 63.03466458 67.26953125 65.109375 C67.91533646 65.74172058 68.56114166 66.37406616 69.22651672 67.02557373 C69.82441513 67.62009338 70.42231354 68.21461304 71.03833008 68.82714844 C71.56348709 69.34484802 72.0886441 69.86254761 72.62971497 70.39593506 C75.12677651 73.31901221 75.95713014 75.53700555 76.3125 79.375 C75.97687168 83.26828854 74.95897983 85.65340945 73 89 C69.99976052 87.65323083 67.91279995 86.16088099 65.59576416 83.83627319 C64.94237564 83.185634 64.28898712 82.53499481 63.61579895 81.86463928 C62.91017319 81.15182297 62.20454742 80.43900665 61.47753906 79.70458984 C60.72593002 78.95327286 59.97432098 78.20195587 59.19993591 77.4278717 C56.71706229 74.94360487 54.2413477 72.45232905 51.765625 69.9609375 C50.04541916 68.23700151 48.3247712 66.51350659 46.60369873 64.79043579 C42.07505668 60.25415749 37.55245285 55.71190506 33.03106689 51.168396 C28.41625986 46.53313047 23.79578604 41.90352137 19.17578125 37.2734375 C10.11162268 28.18782914 1.0536372 19.09609212 -8 10 C-5.95933017 5.73384496 -3.41446998 3.26601476 0 0 Z " fill="#867F7E" transform="translate(421,329)"/>
<path d="M0 0 C5.07127999 2.84880669 8.49450773 6.99957568 10.75 12.375 C11.55433084 18.61117544 10.89055899 23.85194798 7.75 29.375 C4.03145128 33.68068799 0.38654851 37.00872105 -5.37109375 37.80859375 C-16.56917528 37.82178348 -16.56917528 37.82178348 -21.25 33.375 C-25.98777958 28.51744509 -28.29424483 24.34097727 -28.6875 17.5625 C-28.55672962 12.07014407 -26.88558587 8.45483452 -23.25 4.375 C-16.4009811 -1.64973873 -8.52965059 -3.90065615 0 0 Z " fill="#FBDD75" transform="translate(350.25,186.625)"/>
<path d="M0 0 C1.06166382 -0.00810448 1.06166382 -0.00810448 2.14477539 -0.01637268 C4.4790253 -0.02885741 6.81204125 -0.01237387 9.14624023 0.00561523 C10.7700151 0.00546026 12.39379035 0.00397147 14.01756287 0.00120544 C17.41796248 -0.00017836 20.8179402 0.01237741 24.21826172 0.03515625 C28.5787685 0.06356379 32.9385755 0.06079736 37.29913425 0.04806614 C40.6508737 0.04111503 44.00245109 0.04889128 47.35416985 0.06132317 C48.96214108 0.06584163 50.57012968 0.06617101 52.17810249 0.06225777 C54.42378611 0.05935045 56.66850122 0.07582716 58.9140625 0.09765625 C60.83122826 0.10576073 60.83122826 0.10576073 62.78712463 0.11402893 C65.89233398 0.50170898 65.89233398 0.50170898 67.79722595 1.78086853 C69.34345966 4.21060281 69.35550776 6.64284196 69.48608398 9.46655273 C68.54973821 12.67600107 66.63733528 13.69419946 63.89233398 15.50170898 C60.69847107 15.9961853 60.69847107 15.9961853 57.05419922 15.98754883 C56.38689789 15.99134552 55.71959656 15.99514221 55.03207397 15.99905396 C52.83787231 16.00643191 50.6450106 15.98512042 48.45092773 15.96264648 C46.92066096 15.96026052 45.39039123 15.95935706 43.86012268 15.95986938 C40.65818862 15.95674626 37.45670387 15.94021778 34.25488281 15.91333008 C30.15354827 15.87932199 26.05270626 15.87170262 21.95124722 15.87322044 C18.79335338 15.8726763 15.63556691 15.86170254 12.47770882 15.84721756 C10.96546299 15.84086042 9.45320504 15.8369132 7.94094658 15.83543015 C5.82744548 15.83108711 3.71446346 15.81356625 1.60107422 15.79223633 C0.3992601 15.78461273 -0.80255402 15.77698914 -2.04078674 15.76913452 C-5.0180982 15.50951911 -6.66457875 15.17656294 -9.10766602 13.50170898 C-11.43515946 10.01046881 -11.61065918 8.60948648 -11.10766602 4.50170898 C-7.90807147 0.1252869 -5.25260783 0.00068247 0 0 Z " fill="#080703" transform="translate(54.107666015625,333.498291015625)"/>
<path d="M0 0 C3.68069887 1.53643852 5.98775204 3.78150945 8.75 6.625 C9.54921875 7.44226563 10.3484375 8.25953125 11.171875 9.1015625 C11.77515625 9.72804688 12.3784375 10.35453125 13 11 C8.75789864 16.06711299 4.32282911 20.81223371 -0.3671875 25.46484375 C-1.04677521 26.14301651 -1.72636292 26.82118927 -2.42654419 27.51991272 C-4.57367002 29.66149141 -6.72426627 31.79954529 -8.875 33.9375 C-10.34137773 35.39885589 -11.8075258 36.86044226 -13.2734375 38.32226562 C-16.84631 41.88417935 -20.42229684 45.44293865 -24 49 C-27.63303084 47.30413874 -29.94549046 45.26199512 -32.75 42.375 C-33.54921875 41.55773437 -34.3484375 40.74046875 -35.171875 39.8984375 C-35.77515625 39.27195312 -36.3784375 38.64546875 -37 38 C-33.87279684 34.77342777 -30.65219046 31.81729687 -27.19140625 28.95410156 C-16.88486981 20.40931718 -7.73775635 10.9618215 0 0 Z " fill="#DBEAF0" transform="translate(407,296)"/>
<path d="M0 0 C18.15 0 36.3 0 55 0 C55 5.28 55 10.56 55 16 C48.93581894 16.37352812 42.87843684 16.64410088 36.80541992 16.82397461 C34.74531401 16.89898434 32.68599563 17.00104825 30.62866211 17.1315918 C13.96077088 18.16197053 13.96077088 18.16197053 8.93951416 14.49542236 C5.75472025 11.21580014 0 4.81074658 0 0 Z " fill="#EBF3F7" transform="translate(402,106)"/>
<path d="M0 0 C1.51825443 0.00084702 3.03651008 0.00036966 4.55476379 -0.00132751 C8.66176489 -0.00218596 12.76850151 0.01541522 16.87544131 0.03639436 C21.17289297 0.0551864 25.47035112 0.05691359 29.76783752 0.06047058 C37.89916878 0.06978363 46.03037859 0.09438737 54.16165644 0.12451905 C63.42160126 0.15808612 72.68155196 0.17455486 81.94154251 0.18960536 C100.98396495 0.2209376 120.02627446 0.27368368 139.06860352 0.34057617 C139.06860352 0.67057617 139.06860352 1.00057617 139.06860352 1.34057617 C138.35168996 1.33835556 137.6347764 1.33613495 136.89613819 1.33384705 C119.4527421 1.28256316 102.00988603 1.27535945 84.56646442 1.31723022 C76.13089172 1.33641555 67.69580422 1.34067602 59.26025391 1.30981445 C51.90783851 1.2829534 44.5560516 1.28408197 37.20365971 1.31883526 C33.31027441 1.33626062 29.41801492 1.33965997 25.524683 1.30953979 C21.85920079 1.28162461 18.19571561 1.2911602 14.53034401 1.32931328 C12.54529183 1.34025912 10.56014491 1.31159492 8.57528687 1.28175354 C2.38935044 1.19892651 2.38935044 1.19892651 -2.83152199 4.01245117 C-5.32543474 7.77871887 -6.03150396 10.84111356 -6.93139648 15.34057617 C45.86860352 15.34057617 98.66860352 15.34057617 153.06860352 15.34057617 C153.39860352 14.68057617 153.72860352 14.02057617 154.06860352 13.34057617 C154.06860352 14.33057617 154.06860352 15.32057617 154.06860352 16.34057617 C93.34860352 16.34057617 32.62860352 16.34057617 -29.93139648 16.34057617 C-28.99943908 11.68078917 -28.70808504 10.53365053 -25.80639648 7.21557617 C-25.24694336 6.55299805 -24.68749023 5.89041992 -24.11108398 5.20776367 C-16.97352859 -0.90648629 -8.9299873 -0.06976577 0 0 Z " fill="#595353" transform="translate(173.931396484375,433.659423828125)"/>
<path d="M0 0 C25.74 0 51.48 0 78 0 C78 0.33 78 0.66 78 1 C57.54 1 37.08 1 16 1 C15.67 3.31 15.34 5.62 15 8 C13.68 12.95 12.36 17.9 11 23 C35.09 23.33 59.18 23.66 84 24 C84 24.33 84 24.66 84 25 C54.3 25 24.6 25 -6 25 C-4 14 -4 14 0 0 Z " fill="#585252" transform="translate(197,395)"/>
<path d="M0 0 C17.49 0 34.98 0 53 0 C53 0.33 53 0.66 53 1 C41.78 1 30.56 1 19 1 C19 5.95 19 10.9 19 16 C55.96 16 92.92 16 131 16 C131 16.33 131 16.66 131 17 C87.77 17 44.54 17 0 17 C0 11.39 0 5.78 0 0 Z " fill="#B6C1C5" transform="translate(15,105)"/>
<path d="M0 0 C3.68069887 1.53643852 5.98775204 3.78150945 8.75 6.625 C9.54921875 7.44226563 10.3484375 8.25953125 11.171875 9.1015625 C11.77515625 9.72804688 12.3784375 10.35453125 13 11 C7.44964797 17.78376359 1.23557973 23.85522968 -5 30 C-8.21524305 28.59155282 -10.32183868 26.89655214 -12.75 24.375 C-13.36359375 23.74335938 -13.9771875 23.11171875 -14.609375 22.4609375 C-15.06828125 21.97882813 -15.5271875 21.49671875 -16 21 C-14.30404849 16.90563187 -11.43542593 13.80367754 -8.5625 10.5 C-4.12999697 5.37234698 -4.12999697 5.37234698 0 0 Z " fill="#EEF7FB" transform="translate(407,296)"/>
</svg>
